<svg xmlns="http://www.w3.org/2000/svg" width="2048" height="2048"><path fill="#FEFEFE" d="M0 0h2048v2048H0V0Z"/><path fill="#F0831F" d="M731.5 502.875 753 503v68l-27 1c-18.888 1.767-38.878 4.832-52.402 19.523C656.197 612.663 653.248 642.74 651 669l-.307 3.452c-1.762 19.939-3.116 39.896-4.378 59.873-1.217 19.232-2.484 38.44-4.44 57.612l-.243 2.401A604.734 604.734 0 0 1 638 821l-.326 2.25c-3.82 25.691-14.271 49.491-31.799 68.75l-1.45 1.6c-3.48 3.705-7.218 6.547-11.425 9.4 2.245 2.317 4.467 4.557 6.95 6.621 27.304 22.795 36.898 58.442 41.05 92.379l.458 3.63a453.779 453.779 0 0 1 2.588 28.142c.143 2.343.293 4.685.444 7.028.32 5.004.634 10.008.947 15.013 1.23 19.598 2.496 39.188 4.133 58.757l.186 2.227c2.889 52.313 2.889 52.313 28.244 96.203 20.805 16.55 50.15 15.044 75 16v68c-45.43.312-89.238-.585-127-29l-2.043-1.516c-5.495-4.376-9.626-10.002-13.957-15.484l-1.848-2.148c-7.86-9.346-13.122-21.394-17.152-32.852l-1.172-3.215c-2.886-8.49-4.806-17.035-6.453-25.848l-.588-3.126c-3.966-22.161-5.829-44.529-7.595-66.947-.194-2.456-.391-4.91-.59-7.365-1.518-18.848-2.93-37.694-4.06-56.57-1.025-17.138-2.423-34.018-5.542-50.929l-.472-2.567c-3.507-18.285-10.371-35.654-26.153-46.495A233.033 233.033 0 0 0 532 949l-2.148-1.297C511.238 937.493 487.133 937.491 467 936v-64l15.438-1.25c11.806-1.03 23.188-2.223 34.562-5.75l3.063-.934c17.193-5.755 28.04-15.172 36.527-31.039 14.296-29.938 13.28-69.184 15.267-101.703.492-8.013.998-16.024 1.504-24.036.198-3.175.393-6.35.587-9.525l.368-5.915.164-2.743c.28-4.436.745-8.723 1.52-13.105.146-1.752.266-3.506.36-5.262 1.538-25.7 4.172-52.011 11.64-76.738l.659-2.254C593.826 574.27 600.813 557.733 613 544l1.37-1.549c20.05-22.296 48.628-32.8 77.63-37.451l3.366-.553c12.048-1.755 23.979-1.672 36.134-1.572Z"/><path fill="#F1831F" d="M1294 503c48.888-.566 98.815 1.24 136.188 36.75 25.184 26.285 33.183 63.281 37.812 98.25l.491 3.663c3.08 23.707 4.48 47.52 5.882 71.372 1.073 18.252 2.25 36.488 3.69 54.715l.23 3.013c.789 10.244 1.768 20.431 3.191 30.608l.355 2.565c2.554 17.372 9.314 37.465 23.161 49.064 22.48 15.546 48.215 16.94 75 19v64c-4.686.781-8.852 1.151-13.563 1.313-23.536 1.156-48.962 6.96-66.437 23.687-27.186 31.447-23.045 87.412-25.71 126.321-4.502 65.677-4.502 65.677-10.29 97.679l-.592 3.404c-4.302 24.118-13.861 49.195-30.408 67.596l-1.362 1.527c-8.168 9.031-16.966 15.65-27.638 21.473l-1.786.99C1369.185 1297.93 1330.339 1297 1294 1297v-68l24-1c4.05-.344 7.99-.693 12-1.25l2.847-.39c15.586-2.304 31.928-6.902 42.282-19.602 26.434-38.962 23.734-97.33 26.434-142.446 7.024-116.832 7.024-116.832 42.082-151.226 3.522-3.12 7.332-5.66 11.355-8.086l-2.137-1.68c-16.645-13.488-28.475-29.065-35.863-49.32l-1.273-3.46c-6.905-19.799-8.43-41.163-10.402-61.896-.25-2.537-.25-2.537-.825-4.525-.533-2.26-.71-4.354-.825-6.673l-.144-2.753-.144-2.998-.338-6.508-.178-3.484a2696.354 2696.354 0 0 0-3.934-62.765l-.248-3.354c-.818-11.012-1.688-22.02-2.685-33.018l-.216-2.49c-.47-5.012-1.27-9.873-2.32-14.796a116.275 116.275 0 0 1-1.144-6.667c-2.898-19.794-8.871-39.656-24.847-52.918-21.691-14.848-48.216-12.93-73.477-13.695v-69Z"/><path fill="#020202" d="M1136 606c39.142-.412 39.142-.412 58 6l1.977.657c22.055 7.404 37.607 20.423 48.21 41.218 3.216 6.553 5.955 13.046 7.813 20.125l1.02 3.852c6.259 25.98 6.007 53.712 7.142 80.287 1.227 30.222 1.227 30.222 3.713 60.361l.21 2.123c1.615 15.936 5.351 35.428 17.68 46.748 12.557 9.154 24.84 10.445 40.235 11.629v48l-18 2c-15.685 4.183-25.023 12.107-33.164 25.984-12.182 23.992-9.564 58.972-10.78 85.32-2.486 53.807-2.486 53.807-6.431 72.571l-.67 3.232c-4.881 23.023-14.382 47.075-34.885 60.569-25.454 15.925-52.81 16.892-82.07 16.324v-49l22-2c18.533-3.606 18.533-3.606 32.27-15.742 5.616-8.45 8.32-17.432 9.855-27.383l.501-3.149c2.459-16.106 3.387-32.26 3.912-48.527.4-11.352 1.146-22.678 1.9-34.012l.186-2.856c2.573-39.184 2.573-39.184 5.626-51.644l.65-2.74c5.337-21.635 14.966-38.411 32.1-52.947l-1.906-1.652c-19.39-17.083-26.86-36.075-31.782-61.098l-.614-3.001c-4.996-27.072-4.594-55.615-5.873-83.079-1.045-23.481-1.045-23.481-3.266-46.873l-.333-2.745c-1.809-13.334-5.725-29.55-16.925-38.161-11.268-6.81-22.917-8.651-35.801-9.516L1136 656v-50Z"/><path fill="#040404" d="M925 758c3.754 1.562 6.119 3.883 8.965 6.753l1.455 1.46c1.582 1.588 3.157 3.184 4.732 4.78l3.31 3.325c2.904 2.917 5.803 5.84 8.7 8.764 4.63 4.675 9.269 9.343 13.91 14.007 1.616 1.626 3.229 3.256 4.84 4.886l2.994 3.013 2.621 2.646c2.389 2.285 4.878 4.322 7.473 6.366a86.212 86.212 0 0 1 3.188 3.688c2.606 3.084 5.347 5.67 8.439 8.263 4.4 3.919 7.854 8.098 11.3 12.865 14.616 20.207 33.267 45.425 59.1 50.403 29.18 4.484 59.75 1.653 88.973-1.219v28l-8.472-.432c-9.381-.453-18.761-.713-28.151-.887-5.68-.11-11.345-.28-17.017-.598-29.236-2.016-29.236-2.016-54.704 10.265-7.33 6.696-13.74 14.214-19.756 22.096-2.64 3.397-5.519 5.905-8.9 8.556a81.307 81.307 0 0 0-3.25 3.75c-2.716 3.197-5.599 5.98-8.75 8.75-3.019 2.656-5.795 5.292-8.375 8.375-2.793 3.322-5.828 6.196-9.056 9.095-6.632 6.015-12.977 12.292-19.3 18.628a8043.2 8043.2 0 0 0-10.764 10.766c-3.1 3.107-6.206 6.21-9.314 9.31-2.4 2.398-4.8 4.798-7.198 7.199a3719.009 3719.009 0 0 1-3.439 3.436c-1.59 1.589-3.179 3.18-4.766 4.773l-2.736 2.74c-2.084 2.003-2.084 2.003-3.052 4.178h-2c-1.262-1.723-1.262-1.723-2.688-4.063-4.032-6.244-8.62-11.49-15.312-14.937 1.577-3.81 3.974-6.222 6.874-9.116l1.498-1.505c1.634-1.638 3.276-3.268 4.917-4.899l3.432-3.43c2.399-2.398 4.802-4.792 7.207-7.184 3.065-3.048 6.123-6.102 9.179-9.158 2.364-2.364 4.73-4.726 7.098-7.086 1.128-1.124 2.254-2.249 3.38-3.374 5.327-5.32 10.671-10.545 16.392-15.444 3.942-3.515 7.616-7.308 11.327-11.063 1.502-1.52 3.008-3.036 4.515-4.551a7808.02 7808.02 0 0 0 12.816-12.921c2.625-2.651 5.254-5.298 7.886-7.941 1-1.006 1.997-2.013 2.993-3.023 1.383-1.402 2.773-2.798 4.163-4.193l2.39-2.413C1016 918 1016 918 1018 918v-2H858v-28l159-1-45-45.063-14.176-14.203c-4.216-4.22-4.216-4.22-8.433-8.438a7525.02 7525.02 0 0 1-5.606-5.617c-2.838-2.846-5.68-5.689-8.523-8.53l-2.496-2.508c-4.223-4.215-8.516-8.274-13.052-12.151-2.528-2.197-4.862-4.543-7.214-6.928l-2.594-2.62L908 779l2.246-2.227C916.017 770.961 921.257 765.33 925 758Z"/><path fill="#020202" d="m788.313 851.688 2.248.017c13.678.3 25.455 5.712 35.376 15.12 9.164 9.666 14.169 21.308 14.688 34.612-.484 12.484-4.416 24.039-12.625 33.563l-1.957 2.36c-7.103 7.853-17.469 14.174-28.237 14.76-2.665.087-5.327.115-7.994.13l-2.712.063c-13.365.077-24.436-5.315-34.221-14.27C740.925 925.045 738.388 910.965 739 894c.91-11.576 8.19-23.047 16.8-30.574 9.638-7.667 20.194-11.838 32.513-11.739ZM865.75 670.813l2.594-.038c13.32-.03 24.802 4.225 34.593 13.538 4.151 4.492 7.331 9.223 10.063 14.687l1.254 2.445c5.104 11.631 4.18 26.84-.254 38.555-6.094 13.898-15.21 22.663-29.285 28.32-11.635 3.82-24.771 4.882-36.227-.054-15.03-7.645-24.174-16.483-29.761-32.758-4.262-14.709-2.138-28.099 4.812-41.469 6.44-11.142 17.307-19.108 29.707-22.687 4.168-.533 8.306-.536 12.504-.54ZM892.871 1038.61c2.517 1.67 4.819 3.445 7.129 5.39l2.105 1.664c8.714 7.652 14.454 19.968 15.204 31.453.58 15.585-2.945 26.862-12.883 39.29-3.713 3.97-7.738 6.876-12.426 9.593l-2.094 1.238c-10.914 5.955-24.84 6.56-36.781 3.574-14.29-4.62-24.014-12.513-31.125-25.812-5.525-11.822-7.077-24.973-4.129-37.785 5.408-14.876 14.998-25.13 29.137-31.988 15.109-6.194 31.715-4.548 45.863 3.382Z"/><path fill="#040505" d="m414.063 1494.563 2.541-.032c9.202.13 16.28 2.687 23.396 8.469l1 2 1-10h19c.113 9.945.205 19.89.26 29.836.025 4.62.06 9.239.117 13.858.055 4.468.085 8.935.097 13.402.01 1.695.027 3.39.055 5.084.19 12.392-.864 22.851-8.529 33.195-8.036 8.282-19.26 12.436-30.613 12.926-1.567.019-3.133.023-4.7.012l-2.509-.015c-12.02-.229-22.178-3.632-32.178-10.298.604-3.85 1.768-6.861 3.563-10.313l1.378-2.675L389 1578c2.564.983 5.014 2.008 7.445 3.29 9.764 4.867 21.38 5.844 31.89 2.718 4.28-2.02 7.088-3.987 9.665-8.008 1.622-5.206 2.226-9.571 2-15l-2.438 2.25c-8.394 7.002-17.972 8.29-28.562 7.75-10.452-1.054-18.658-6.618-25.309-14.559-2.681-3.87-4.32-7.955-5.691-12.441l-.582-1.816c-1.892-9.883-1.304-21.562 3.836-30.32 8.463-12.107 18.23-17.164 32.808-17.302Z"/><path fill="#040404" d="m816.875 1494.625 2.816-.074c10.948-.046 19.384 4.027 27.309 11.449 7.034 7.401 11.233 16.722 11.563 26.938-.54 13.18-4.882 22.93-14.438 31.812-11.444 9.57-24.777 10.425-39.125 9.25-8.02-1.524-14.05-5.539-20-11l-1.715-1.55c-7.262-7.448-9.777-17.378-9.91-27.513.19-11.69 3.997-20.303 12.164-28.742 9.445-8.425 19.007-10.553 31.336-10.57ZM1335.832 1502.207c8.035 6.645 13.531 14.388 15.168 24.793.998 13.017-.726 23.749-9.215 34.191-3.527 3.574-7.48 6.255-11.785 8.809l-2.164 1.324c-9.445 4.756-23.455 4.19-33.524 1.551-4.935-1.86-9.18-4.63-13.312-7.875l-1.906-1.488c-7.056-6.236-10.931-14.361-11.606-23.672-.326-8.995-.472-18.023 4.512-25.84l1.438-2.34c5.541-8.006 14.05-13.788 23.5-16.226 13.73-1.944 27.327-1.519 38.894 6.773Z"/><path fill="#050606" d="M1568.969 1502.344c7.193 5.865 11.784 13.669 14.031 22.656v16h-60c6.33 10.664 6.33 10.664 16.438 15.813l2.562.187 1.988.152c8.472.366 15.266-2.135 22.012-7.152 3.359 1.434 5.359 3.194 7.75 5.938l1.86 2.09C1577 1560 1577 1560 1577 1563c-6.781 7.217-15.26 10.838-25.02 11.344-1.847.046-3.695.077-5.543.093l-2.649.032c-11.683-.157-22.32-4.115-30.976-12.032-8.508-8.968-11.172-19.315-11.023-31.351.732-10.702 5.77-20.154 13.524-27.461 14.658-12.236 38.336-12.286 53.656-1.281Z"/><path fill="#060606" d="M1160 1502c7.785 6.186 12.694 14.41 15 24v15h-60c3.559 7.118 6.467 12.156 14 15 2.92.344 5.813.37 8.75.375l2.344.074c5.917.03 9.844-1.501 14.906-4.449 1.33-.675 2.662-1.343 4-2l1.645 1.863 2.168 2.45 2.144 2.425A114.203 114.203 0 0 0 1170 1562c-12.1 10.85-23.756 13.074-39.574 12.48-11.52-.783-20.123-6.219-28.172-14.214-7.009-8.18-9.02-19.667-8.637-30.168 1.377-11.145 7.297-21.467 16.016-28.524 15.256-10.145 35.069-9.023 50.367.426Z"/><path fill="#080808" d="M877 1495h20l1 8 1.54-1.242 2.085-1.633 2.04-1.617c8.546-5.517 21.11-4.752 30.776-2.82 8.36 2.79 13.533 6.942 17.722 14.692 3.302 6.799 3.622 12.583 3.423 20.042l-.026 3.715c-.033 3.872-.108 7.742-.185 11.613-.03 2.643-.058 5.286-.082 7.93-.066 6.44-.17 12.88-.293 19.32h-21l-.028-4.495c-.04-5.513-.106-11.025-.18-16.538-.028-2.384-.049-4.768-.063-7.152-.021-3.431-.068-6.86-.12-10.292l-.003-3.22c-.12-6.065-.56-9.681-4.606-14.303-4.309-3.45-9.3-4.723-14.762-4.45-5.535 1.112-9.23 4.183-12.676 8.513-2.11 3.966-2.682 7.152-2.767 11.614l-.06 2.79-.051 2.986-.063 3.077c-.066 3.24-.125 6.48-.183 9.72l-.131 6.594c-.108 5.385-.207 10.77-.307 16.156h-21v-79Z"/><path fill="#050505" d="M759 1501c-1.599 5.196-3.741 10.066-6 15l-1.828-.621-2.422-.816-2.39-.81c-5.406-1.726-10.209-1.936-15.86-1.94l-2.59-.038-2.504-.005-2.271-.013c-2.495.284-4.057.83-6.135 2.243-.656 3.062-1 5.872-1 9 5.45 1.93 10.823 3.173 16.535 3.979 9.833 1.403 19.824 3.382 26.653 11.271 3.739 5.674 3.5 11.066 2.812 17.75-2.695 7.32-8.59 12.004-15.5 15.25-12.04 5.322-30.743 4.467-43.105.684-3.626-1.414-6.996-3.038-10.395-4.934 1.599-5.196 3.741-10.066 6-15 4.147.61 7.286 2.103 11 4 4.731 1.465 9.53 1.184 14.438 1.188l2.853.037c6.578.022 6.578.022 12.709-2.225l1-7c-6.805-3.743-13.273-4.927-20.875-5.875-8.957-1.256-16.161-2.97-21.969-10.246-3.708-6.025-4.02-11.962-3.156-18.879 2.43-6.519 7.786-11.695 13.828-15 15.145-6.848 35.641-3.935 50.172 3ZM1223.75 1494.563l3.2.014c9.595.181 17.487 1.981 26.05 6.423l-6 15-1.793-.621-2.395-.816-2.355-.81c-5.008-1.536-9.588-1.914-14.832-1.94l-3.836-.043c-6.353.335-6.353.335-11.789 3.23-.5 3.416-.5 3.416 0 7 3.375 2.564 6.468 3.511 10.605 4.21l3.233.587c2.213.382 4.426.76 6.64 1.133 8.186 1.494 16.06 3.521 22.022 9.632 3.813 6.197 4.39 11.155 3.5 18.438-2.531 7.088-8.416 11.58-14.895 15-12.35 5.596-30.946 4.89-43.746.934A85.934 85.934 0 0 1 1187 1567c1.599-5.196 3.741-10.066 6-15 2.621.597 4.702 1.317 7.188 2.438 9.393 4.051 20.661 5.441 30.562 2.437 3.521-1.549 3.521-1.549 4.25-4.938V1547c-5.628-1.51-11.234-2.886-16.969-3.914-.87-.16-1.74-.32-2.637-.483-1.726-.312-3.455-.61-5.186-.893-7.11-1.3-12.572-3.936-17.583-9.21-4.067-6.257-4.5-12.189-3.625-19.5 2.01-6.423 5.763-10.133 11.328-13.71 7.823-3.775 14.758-4.811 23.422-4.727ZM1407 1495h22c6.648 14.291 13.071 28.651 19.202 43.17l1.462 3.451 1.295 3.076c.84 2.22.84 2.22 2.041 3.303a62297.809 62297.809 0 0 0 8.636-19.412l3.18-7.15 1.058-2.378c1.742-3.921 3.472-7.847 5.18-11.783l.977-2.25c.61-1.404 1.217-2.81 1.821-4.217 2.038-4.7 2.038-4.7 3.148-5.81a62.92 62.92 0 0 1 4.254-.098l2.588.01 2.72.025 2.733.014c2.235.012 4.47.028 6.705.049-.644 4.015-1.907 7.374-3.563 11.082l-.798 1.804c-.574 1.296-1.15 2.592-1.728 3.886a2423.879 2423.879 0 0 0-4.704 10.626l-1.01 2.292c-4.665 10.606-9.155 21.287-13.654 31.963a7392.124 7392.124 0 0 1-3.219 7.624l-.976 2.328c-2.235 5.282-2.235 5.282-3.348 6.395a83.431 83.431 0 0 1-4.91.098l-2.998-.01-3.155-.025-3.166-.014c-2.59-.012-5.18-.028-7.771-.049a8485.899 8485.899 0 0 1-6.565-14.576c-4.785-10.653-9.454-21.353-14.068-32.081-3.57-8.295-7.22-16.536-11.185-24.65-2.182-4.498-2.182-4.498-2.182-6.693Z"/><path fill="#030303" d="M536 1478h21v18h18v16h-18c.051 5.446.114 10.888.208 16.333.028 1.85.049 3.701.063 5.552.022 2.666.068 5.332.12 7.998l.003 2.491c.138 5.434 1.057 8.45 4.606 12.626 2.169.755 2.169.755 4.438.438l2.246-.13c2.467-.328 4.882-.789 7.316-1.308.868 1.743 1.72 3.495 2.563 5.25l1.44 2.953c1.035 2.903 1.225 4.018-.003 6.797-6.438 4.53-16.554 3.46-24 3-6.09-1.15-11.008-4.298-15-9-5.85-9.815-4.445-21.722-4.25-32.688.02-1.973.038-3.946.055-5.92.043-4.797.112-9.594.195-14.392h-12v-15h11v-19Z"/><path fill="#090909" d="M655 1495h21c.068 10.615.123 21.23.155 31.844.016 4.93.037 9.86.071 14.79.033 4.765.05 9.53.059 14.296.005 1.81.016 3.62.032 5.43.212 24.482.212 24.482-6.442 33.14-6.224 6.186-12.174 7.853-20.875 7.938-6.162-.09-11.432-.703-17-3.438-1.207-2.57-1.066-3.776-.258-6.508l1.133-2.617 1.117-2.633A113.858 113.858 0 0 1 636 1583l2.5 1c4.2 1.2 7.144 1.357 11.5 1 2.175-1.543 2.818-2.637 4-5 .122-2.684.186-5.344.205-8.03l.03-2.513c.032-2.749.057-5.497.081-8.246l.063-5.709c.056-5.014.105-10.028.153-15.042.05-5.114.106-10.229.161-15.343.108-10.039.209-20.078.307-30.117Z"/><path fill="#040404" d="M1371 1464h20v110c-10.223 1.136-10.223 1.136-13.938-.188l-2.214-.73c-2.373-1.39-2.819-2.555-3.848-5.082-.246-2.116-.246-2.116-.24-4.43l-.009-2.668.022-2.903v-3.076c0-3.354.016-6.709.032-10.064l.008-6.978a7762.2 7762.2 0 0 1 .05-18.366c.02-6.247.03-12.494.04-18.742.02-12.257.056-24.515.097-36.773Z"/><path fill="#010101" d="M1649 1495v18l-5 .188c-6.509.619-11.107 2.446-15.423 7.468-3.867 5.68-4.312 10.423-4.284 17.188l-.046 3.06c-.043 3.199-.052 6.397-.06 9.596-.023 2.18-.048 4.36-.076 6.54-.066 5.32-.088 10.638-.111 15.96h-20v-77h19l1 8 1.25-1.207c7.52-6.9 13.655-8.214 23.75-7.793Z"/><path fill="#030304" d="M1082 1495v18l-5.5.188c-5.738.5-10.465 1.493-14.5 5.812-4.044 6.13-4.6 11.632-4.61 18.844-.016 1.01-.032 2.02-.05 3.06-.048 3.198-.07 6.397-.09 9.596-.028 2.18-.058 4.36-.09 6.54-.077 5.32-.117 10.639-.16 15.96h-20v-77h19v9h2l.656-1.797c4.658-7.636 15.269-8.915 23.344-8.203Z"/><path fill="#070707" d="M487 1495h21v78h-21v-78Z"/><path fill="#FBFBFB" d="M825.438 1513.625c6.01 3.554 9.447 8.807 11.562 15.375 1.102 7.082-.669 13.726-4 20-3.725 4.338-8.188 7.608-13.918 8.406-6.96.2-11.688-.286-17.273-4.62-5.373-5.304-6.946-11.234-7.059-18.599.073-7.495 1.91-12.699 7.25-18.187 6.84-5.272 15.494-5.956 23.438-2.375ZM1318.813 1513.5c5.617 2.814 9.22 7.6 11.187 13.5.813 8.491.974 15.8-4.188 22.969-4.001 4.484-7.104 6.651-13.156 7.5-6.335.27-11.878.172-17.035-3.809-5.071-5.193-6.915-9.956-7.059-17.223.368-8.306 1.225-14.362 7.438-20.437 6.957-5.287 14.67-5.576 22.813-2.5Z"/><path fill="#FAFAFA" d="M429.438 1514.125c5.28 3.008 8.32 6.155 10.875 11.75 1.64 7.458.867 12.188-2.758 18.855-3.504 5.115-8.536 7.972-14.555 9.27-6.774.743-12.485.263-18-4-6.286-6.807-7.42-12.282-7.344-21.473.478-4.906 1.935-8.003 5.344-11.527 7.862-6.132 17.329-7.142 26.438-2.875Z"/><path fill="#0F0F0F" d="M977 1524h38v17h-38v-17Z"/><path fill="#0B0B0B" d="M595 1524h38v17h-38v-17Z"/><path fill="#F8F8F8" d="M1551.46 1511.684c5.816 2.684 10.242 7.257 12.54 13.316v3h-41c1.517-7.585 5.048-11.471 11-16 4.89-2.445 12.308-1.748 17.46-.316Z"/><path fill="#F9FAF9" d="M1145.438 1512.438c4.47 2.647 7.398 6.907 9.562 11.562v4h-40c1.179-8.252 3.142-11.083 9.563-15.938 6.643-2.053 14.364-2.359 20.874.376Z"/><path fill="#DC8E43" d="M1459 598c2.845 2.845 3.104 6.116 3.875 9.938l.517 2.53c6.119 30.887 8.664 62.278 10.429 93.669.363 6.39.75 12.779 1.136 19.168l.13 2.143c.856 14.134 1.893 28.251 3.038 42.365l.243 3.024A1765.17 1765.17 0 0 0 1482 810c-5.367-5.367-5.044-15.87-5.098-23.035.007-1.676.019-3.352.035-5.028l.014-2.623c.012-2.104.03-4.21.049-6.314h-2c-.854-4.59-1.27-9.137-1.525-13.792l-.134-2.3c-.095-1.645-.189-3.29-.281-4.936-.149-2.639-.302-5.277-.456-7.916-.439-7.503-.87-15.006-1.296-22.51-1.682-29.509-3.715-58.917-7.56-88.238a1434.62 1434.62 0 0 1-.941-7.392l-.623-4.826-.272-2.172c-.594-4.453-1.63-8.617-2.912-12.918-.218-2.716-.096-5.268 0-8Z"/><path fill="#D7924F" d="M753 503v68l-27 1c-11.061 1.034-21.328 3.106-32 6-1.332.337-2.665.673-4 1l1-3a69.988 69.988 0 0 1 7.25-2.063c5.232-1.224 5.232-1.224 10.297-2.996 5.556-2.132 11.475-2.083 17.355-2.039l1.945.003c2.363.006 4.727.02 7.09.033L751 569l-1-64-20.313.375-6.34.103c-8.207.16-16.155.328-24.206 2.09-3.121.63-6.154.625-9.328.557l-3.356-.055L684 508v2l-2.71.516c-6.674 1.337-12.853 2.889-19.11 5.566-4.66 1.963-9.068 3.228-14.18 2.918 3.504-3.043 7.424-4.455 11.75-5.938l2.29-.788c7.56-2.549 15.134-4.707 22.96-6.274l2.215-.458c21.55-4.204 43.997-2.736 65.785-2.542Z"/><path fill="#070707" d="M504.375 1461.25c2.703 1.802 4.175 2.85 5.625 5.75.548 5.025.035 7.954-3 12-2.39 2.788-4.326 3.805-8.05 4.238-5.503.18-8.649-.461-12.95-4.238-2.59-3.415-2.431-6.833-2-11 4.524-8.563 11.564-10.013 20.375-6.75Z"/><path fill="#FDE9CC" d="M728.534 500.794c3.216.019 6.432.02 9.648.02 2.047.005 4.095.011 6.142.018l2.91.003 2.655.02 2.341.011C754 501 754 501 755 502c.094 2.178.117 4.36.114 6.54v2.069c0 2.267-.009 4.534-.016 6.801a7100 7100 0 0 1-.029 17.108c-.01 4.216-.015 8.432-.02 12.648-.01 8.278-.028 16.556-.049 24.834-2.283 1.142-3.635 1.153-6.174 1.205l-2.609.06-2.819.051-2.883.063c-3.047.066-6.093.125-9.14.184l-6.188.13c-5.062.108-10.124.209-15.187.307v-1c14.517-2.49 27.976-2 43-2v-68c-53.25.286-53.25.286-103.742 15.547-2.48 1.106-4.613 1.948-7.258 2.453 1.37-3.161 1.99-3.993 5-6 2.043-.414 2.043-.414 4.187-.625L655 514v-2c6.803-2.852 13.792-4.85 20.937-6.625l2.394-.624c16.423-3.945 33.41-4.058 50.203-3.957Z"/><path fill="#060606" d="M669 1460c3.826 2.021 6.95 4.129 9 8 .6 3.94.181 5.67-1.75 9.188-4.456 5.57-4.456 5.57-8.328 6.093-5.954.237-9.265-.898-13.735-4.906-1.866-3.733-1.98-7.297-1.187-11.375 4.422-5.618 8.827-8.114 16-7Z"/><path fill="#FEEED2" d="M627 947h3l1.023 3.613 1.352 4.7.672 2.38.664 2.295.603 2.11c.703 2.187.703 2.187 2.686 4.902.487 2.16.487 2.16.816 4.633.125.888.25 1.776.377 2.691l.37 2.801c.247 1.836.498 3.672.753 5.508l.327 2.465c.172 1.906.172 1.906 1.357 2.902.265 1.602.469 3.215.648 4.83l.354 3.13.373 3.43.392 3.545c.275 2.495.547 4.99.817 7.485.407 3.745.825 7.489 1.244 11.232 1.314 11.932 2.483 23.815 2.881 35.817.108 3.18.238 6.219.77 9.36.816 4.967.977 9.968 1.24 14.991l.386 6.996c.199 3.665.396 7.33.593 10.995.191 3.545.387 7.09.583 10.634l.174 3.327.172 3.096.146 2.717c.21 2.244.647 4.243 1.227 6.415.536 4.305.942 8.624 1.357 12.942.203 2.09.414 4.178.625 6.267.752 7.616 1.228 15.135 1.018 22.791h-1c-.633-3.936-1.255-7.874-1.875-11.813l-.527-3.275c-2.912-18.601-4.224-37.33-5.535-56.1l-.528-7.404c-.84-11.88-1.636-23.76-2.32-35.65C642.127 1017.557 639.8 981.32 627 947Z"/><path fill="#DC9049" d="M1294 503c25.786-.299 50.6.05 76 5v1c-2.146.056-4.291.094-6.438.125l-3.62.07c-4.24-.066-8.398-.595-12.598-1.132-10.442-1.317-20.898-1.743-31.407-2.188L1296 505v64h25c9.86 1.39 19.398 3.391 29 6-4.062 1.566-7.519.45-11.688-.375-14.646-2.104-29.522-2.177-44.312-2.625v-69Z"/><path fill="#DE8B3B" d="M1476 1039h1c.285 10.433-.571 20.799-1.32 31.195l-.212 2.957a8994.5 8994.5 0 0 1-1.13 15.587c-.306 4.203-.605 8.407-.895 12.611-5.946 86.143-5.946 86.143-18.443 115.65-1.277-3.831-.323-5.248 1-9 .359-1.95.67-3.91.938-5.875a388.93 388.93 0 0 1 2.562-15.438l.719-3.863a127.29 127.29 0 0 1 1.808-7.691c1.178-4.603 1.611-9.222 2.035-13.946.155-1.673.312-3.346.473-5.019l.2-2.21C1465 1152 1465 1152 1466 1149c.182-2.393.322-4.79.438-7.188 1.113-20.465 1.113-20.465 3.562-27.812.163-1.406.282-2.817.373-4.23l.172-2.585.174-2.802.19-2.93c.133-2.06.264-4.12.393-6.18.193-3.074.392-6.148.593-9.222A1953.864 1953.864 0 0 0 1474 1047h2v-8Z"/><path fill="#E28735" d="M569 1023c4.856 9.028 4.345 19.45 4.5 29.438.126 8.073.386 15.817 2.014 23.739.892 5.182 1.056 10.426 1.32 15.672.589 11.55 1.47 23.027 2.729 34.526 1.656 15.24 2.659 30.288 2.437 45.625h2v12h-1c-3.234-18.124-5.272-36.264-6.818-54.597-.185-2.184-.373-4.368-.563-6.552a3089.324 3089.324 0 0 1-4.994-66.164l-.259-3.972c-.238-3.692-.471-7.385-.702-11.078l-.207-3.28c-.312-5.13-.534-10.217-.457-15.357Z"/><path fill="#DE8B3F" d="M1408 992h1c.055 3.084.094 6.166.125 9.25l.05 2.586c.036 4.685-.259 9.053-1.128 13.66-1.36 7.519-1.55 15.027-1.824 22.646-.687 18.71-1.864 37.374-3.223 56.045l-.254 3.552c-.919 12.805-1.945 25.547-3.746 38.261h-2l-1 4a892.714 892.714 0 0 1 2.186-30.922c1.36-15.387 2.39-30.784 3.314-46.203.862-14.328 1.796-28.64 3.063-42.938l.347-3.97c.797-8.694 1.876-17.324 3.09-25.967Z"/><path fill="#DE924D" d="M1294 1229h24v1c-1.603.174-3.208.338-4.813.5l-2.707.281c-4.817.303-9.653.219-14.48.219v63c24.378-.563 48.664-1.498 73-3-19.084 10.785-57.576 6-75 6v-68Z"/><path fill="#DD9046" d="M635 975c2.005 3.007 2.431 4.473 3 7.945l.5 3.02.5 3.16.5 2.996c2.248 13.821 3.69 27.681 4.546 41.651.143 2.343.293 4.685.444 7.028.32 5.004.634 10.008.947 15.013.411 6.548.826 13.096 1.247 19.644l.156 2.44c.892 13.88 1.99 27.739 3.224 41.593l.19 2.17c.167 1.916.339 3.833.511 5.749.254 3.883.274 7.701.235 11.591-2.492-3.738-2.611-7.085-3-11.438-.48-5.123-1.084-10.16-2-15.226-1.208-7.063-1.625-14.126-2-21.274l-.244-4.352c-.814-14.757-1.446-29.523-2.059-44.29.036-15.946.036-15.946-2.697-31.42a118.704 118.704 0 0 1-.063-5.688l.028-3.011L639 1000h-2c-2.215-8.404-2.207-16.373-2-25Z"/><path fill="#DC914C" d="M583 614h1c.055 2.48.094 4.958.125 7.438l.05 2.083c.035 3.686-.216 6.996-1.123 10.574-1.204 5.228-1.675 10.423-2.087 15.764l-.253 3.107c-.176 2.164-.348 4.33-.517 6.494-.254 3.24-.517 6.478-.783 9.716-.879 10.89-1.608 21.769-2.085 32.683-.3 6.852-.762 13.68-1.327 20.516l-.527 6.605-.25 3.127c-.381 4.944-.686 9.892-.977 14.842-.272 3.377-.736 6.702-1.246 10.051h-2c.428-17.652 1.38-35.255 2.5-52.875.066-1.049.131-2.098.2-3.178.19-3.022.384-6.043.581-9.064l.174-2.753c.296-4.44.772-8.742 1.545-13.13.146-1.752.266-3.506.36-5.262 1.148-19.095 3.74-37.843 6.64-56.738Z"/><path fill="#D59555" d="m709 1227 3.023.184c13.661.797 27.293 1.29 40.977 1.816v68l-18.813.063-5.866.027c-8.489.023-16.883-.013-25.321-1.09v-1h48v-64h-27c-10.863-1.102-10.863-1.102-14-2l-1-2Z"/><path fill="#DA8C46" d="M1403 743h1c1.12 8.035 1.114 15.96 1.063 24.063-.006 1.356-.01 2.712-.014 4.068-.012 3.29-.028 6.58-.049 9.869h2l.148 3.035.227 4.028c.07 1.31.14 2.621.21 3.972.515 4.918 1.858 9.294 3.415 13.965.169 1.811.302 3.626.414 5.441.487 6.303 1.604 12.33 2.961 18.496l.686 3.177c.444 2.055.893 4.108 1.344 6.16.49 2.246.96 4.493 1.415 6.746 2.163 10.28 5.623 19.487 11.946 27.945 1.415 2.334 1.842 4.35 2.234 7.035-21.197-18.703-22.92-57.339-25.694-83.27l-.243-2.256c-.218-2.046-.432-4.093-.646-6.14-.32-2.555-.75-4.862-1.417-7.334-1.33-12.958-1.111-25.992-1-39Z"/><path fill="#FDEACD" d="M1580 872h2c.07 8.44.123 16.88.155 25.321.016 3.92.037 7.838.071 11.757.033 3.78.05 7.56.059 11.34.005 1.445.016 2.889.032 4.333.022 2.018.023 4.037.024 6.055l.02 3.486L1582 937c-3.351 2.234-4.418 2.238-8.324 2.195l-3.115-.02-3.248-.05-3.284-.027c-2.676-.024-5.353-.057-8.029-.098v2l-2.344.113c-7.069.4-7.069.4-13.781 2.45-4.55 1.977-8.996 1.707-13.875 1.437 2.9-1.933 4.569-2.516 7.895-3.254.955-.215 1.911-.43 2.896-.65l3.022-.659 2.986-.67c12.67-2.816 23.633-3.177 37.201-3.767v-64Z"/><path fill="#D9904A" d="M656 624c1 3.152.955 5.31.293 8.535l-.526 2.668-.58 2.86C653.222 648.37 651.895 658.55 651 669l-.307 3.452C647.91 703.926 646.009 735.469 644 767h-1c-.191-12.79.283-25.427 1.225-38.182.364-4.934.708-9.87 1.048-14.806l.202-2.915c.516-7.614.858-15.22 1.087-22.847.277-8.721.928-17.237 2.125-25.881.378-2.863.71-5.73 1.04-8.6l.773-6.582.359-3.168.36-2.976.31-2.656c.482-2.444 1.338-4.186 2.471-6.387.355-2.33.691-4.663 1-7l1-1Z"/><path fill="#FDEBCF" d="M1294 501c6.01-.05 12.02-.086 18.03-.11 2.038-.01 4.077-.023 6.115-.04 12.995-.11 25.523-.058 38.195 3.216 4.77 1.217 9.498 1.639 14.392 2.057 4.923.497 8.73 1.79 13.268 3.877 1.884.562 3.78 1.086 5.688 1.563 3.355.84 6.271 1.778 9.312 3.437v3c-4.45-1.288-8.874-2.592-13.23-4.172-29.312-10.54-61.017-10.203-91.77-10.828v-2Z"/><path fill="#DB8638" d="M731 504c3.312-.029 6.625-.047 9.938-.063l2.865-.025 2.724-.01 2.524-.016C751 504 751 504 752 505c.094 2.056.117 4.114.114 6.172v1.951c0 2.138-.009 4.275-.016 6.412l-.005 4.435c-.003 3.898-.013 7.796-.024 11.694-.01 3.974-.015 7.95-.02 11.924-.01 7.804-.028 15.608-.049 23.412l-2.25.079c-3.404.12-6.807.245-10.21.37l-3.54.124c-14.486.538-28.032 2.64-42 6.427-1.332.337-2.665.673-4 1l1-3a69.988 69.988 0 0 1 7.25-2.063c5.232-1.224 5.232-1.224 10.297-2.996 5.556-2.132 11.475-2.083 17.355-2.039l1.945.003c2.363.006 4.727.02 7.09.033L751 569l-1-64h-19v-1Z"/><path fill="#FDE9CC" d="M1402 1045h1c-.74 30.347-3.018 60.621-6.125 90.813l-.261 2.543c-.245 2.368-.495 4.734-.747 7.101l-.22 2.103c-.385 3.525-.886 6.976-1.647 10.44h-1a995.39 995.39 0 0 1-.063-5.75l-.035-3.234c.098-3.016.098-3.016.575-4.752.73-3.162.824-6.262.988-9.502l.232-4.386.118-2.316c1.434-27.787 4.298-55.393 7.185-83.06Z"/><path fill="#DA9350" d="M1385 608h3l1 5h2c4.355 22.48 4.355 22.48 4.824 32.832-.061 2.147-.061 2.147 1.176 3.168.377 2.608.694 5.2.973 7.82l.265 2.434c.282 2.623.554 5.247.824 7.871l.28 2.678c1.421 13.787 2.19 27.33 1.658 41.197h-1l-.176-2.135c-.553-6.678-1.112-13.356-1.676-20.034-.29-3.432-.578-6.864-.86-10.296-.327-3.958-.663-7.914-.999-11.87l-.3-3.689c-.52-6.042-1.225-11.916-2.53-17.84-.466-2.167-.817-4.33-1.135-6.523-1.317-8.971-3.246-17.237-6.336-25.77C1385 610 1385 610 1385 608Z"/><path fill="#D48C49" d="m1543 869 11 1 26 2v64c-4.724.787-9.185 1.188-13.938 1.375-7.136.336-13.837 1.401-20.792 3.004-3.179.604-6.045.734-9.27.621 4.657-5.1 10.87-4.529 17.375-5.063l3.098-.275c7.587-.633 14.856-.662 22.527-.662l-1-61-24-1-11-3v-1Z"/><path fill="#FDE8C9" d="M1473 696c4.868 9.736 4.148 20.097 4.332 30.826.291 16.27 1.21 32.415 2.652 48.622.693 7.865 1.238 15.648 1.016 23.552h-1c-2.198-20.131-3.75-40.302-5.188-60.5l-.273-3.77c-1.887-26.095-1.887-26.095-1.539-38.73Z"/><path fill="#D78F49" d="M1476 1039h1c.357 10.91-.699 21.77-1.531 32.637-.158 2.091-.314 4.183-.471 6.275-.41 5.473-.826 10.946-1.243 16.418-.425 5.598-.846 11.195-1.267 16.793-.825 10.96-1.655 21.918-2.488 32.877h-1c-.029-4.437-.047-8.875-.063-13.313l-.025-3.826-.01-3.662-.016-3.38C1469 1117 1469 1117 1470 1114c.163-1.406.282-2.817.373-4.23l.172-2.585.174-2.802.19-2.93c.133-2.06.264-4.12.393-6.18.193-3.074.392-6.148.593-9.222A1953.864 1953.864 0 0 0 1474 1047h2v-8Z"/><path fill="#DA9450" d="M635 975c2.005 3.007 2.431 4.473 3 7.945l.497 2.985.503 3.195.53 3.306c3.728 23.587 6.148 47.668 5.47 71.569h-1a108242.884 108242.884 0 0 1-2.047-25.182 9619.32 9619.32 0 0 0-.399-4.897 985.46 985.46 0 0 1-.84-10.923c-.082-1.161-.164-2.322-.25-3.518-.066-.997-.133-1.995-.203-3.022-.186-2.591-.186-2.591-1.261-5.458a118.704 118.704 0 0 1-.063-5.688l.028-3.011L639 1000h-2c-2.215-8.404-2.207-16.373-2-25Z"/><path fill="#FEE9C9" d="m1327.23 1224.902 2.432.01 2.525.025 2.561.014c2.084.012 4.168.03 6.252.049v1c-3.33.53-6.664 1.017-10 1.5l-2.715.434c-11.603 1.635-22.21 1.066-34.285 1.066v67h-1v-69l27-1c2.766-.922 4.383-1.118 7.23-1.098Z"/><path fill="#DA8E45" d="M1372 509c25.502 5.414 51.769 18.996 66.625 41.125A194.356 194.356 0 0 1 1441 554c-3.528-.6-3.906-.877-6.25-3.938C1433 547 1433 547 1433 545l-4-2v-2l-1.754-.824a44.774 44.774 0 0 1-12.496-9.676c-4.304-3.912-9.506-6.066-14.75-8.5v-2l-2.063-.313c-2.795-.654-5.227-1.628-7.843-2.792-2.546-1.088-5.122-2.06-7.719-3.02l-2.727-1.008c-2.54-.831-5.019-1.402-7.648-1.867v-2Z"/><path fill="#FCE4C4" d="M572 1076h1l.214 2.708c.673 8.487 1.349 16.974 2.03 25.46.349 4.361.697 8.723 1.042 13.084.333 4.222.67 8.443 1.011 12.663.128 1.598.255 3.196.38 4.795.715 9.096 1.616 18.115 2.926 27.147.476 3.77.552 7.35.397 11.143h-1c-2.53-9.435-3.597-18.51-4.063-28.25-.337-9.73-.337-9.73-1.957-19.293-1.53-6.075-1.45-12.286-1.605-18.52l-.115-3.88c-.252-9.02-.388-18.033-.26-27.057Z"/><path fill="#D98E47" d="M642 769h1c.271 9.544-.736 18.9-1.75 28.375l-.272 2.57C639.018 818.24 635.945 835.553 630 853h-1c-.342-6.07.046-10.88 2.207-16.563 1.256-3.86 1.721-7.822 2.266-11.835C634 822 634 822 636 819c1.81-7.794 2.295-15.821 2.658-23.794.243-5.009.243-5.009 1.342-7.206.218-1.445.39-2.897.535-4.352l.264-2.578.264-2.695.275-2.719c.224-2.218.445-4.437.662-6.656Z"/><path fill="#FEF0D7" d="m613 541 3 1-1.285 1.363C597.055 562.731 589.305 588.86 584 614h-1c.43-6.165 1.296-12.232 2.375-18.313l.345-2.064c.762-4.137 1.982-7.124 4.28-10.623.707-2.693.707-2.693 1-5h2l.402-2.168c.586-2.774 1.33-5.435 2.16-8.144l.817-2.676L597 563h2l.375-1.688c.685-2.533 1.616-4.891 2.625-7.312h2l1-4h2l.438-1.875C608 546 608 546 609 544h2v-2l2-1Z"/><path fill="#DB8C43" d="M569 1023c4.765 9.284 4.371 19.664 4.563 29.875.044 2.103.09 4.206.142 6.309.046 1.891.084 3.783.121 5.675.063 2.975.063 2.975.683 5.133.732 2.993.602 5.885.589 8.961l-.005 2c-.005 2.1-.018 4.198-.03 6.297-.006 1.427-.01 2.854-.014 4.281-.011 3.49-.028 6.98-.049 10.469h-1c-.557-7.393-1.107-14.786-1.654-22.18-.186-2.504-.373-5.007-.562-7.51-1.236-16.43-2.226-32.842-2.784-49.31Z"/><path fill="#E48C3A" d="m1453 906 2 1c-4.078 4.857-8.359 9.488-12.813 14l-1.454 1.493c-1.205 1.21-2.465 2.363-3.733 3.507h-2l-.777 2.176c-1.297 2.995-2.872 5.372-4.785 8.011-2.41 3.292-2.41 3.292-4.438 6.813h-2l-1 4-1-2c6.64-15.504 17.78-29.835 32-39Z"/><path fill="#DB8D44" d="M627 853h2c-2.143 7.264-5.179 13.474-9 20l-1.488 2.652c-3.434 5.803-7.464 10.778-12.012 15.723l-1.617 1.767c-3.65 3.861-7.477 6.888-11.883 9.858l4 5c-4.875-.875-4.875-.875-6-2a99.984 99.984 0 0 1 0-5h3v-3l5-1v-3h2l1-3a281.771 281.771 0 0 1 5-5l2.188-2.813L611 881h2l1-4h2v-4h2v-3c.989-1.011 1.99-2.01 3-3 .986-2.03.986-2.03 1.688-4.188l.761-2.167L624 859h2l1-6Z"/><path fill="#FBE5C5" d="M1481 1005h1c-.139 3.917-.287 7.833-.438 11.75l-.119 3.367-.127 3.242-.11 2.984c-.206 2.657-.206 2.657-.708 4.62-.676 2.765-.7 5.42-.78 8.264l-.113 3.625-.21 7.57-.114 3.617-.092 3.319C1479 1060 1479 1060 1478 1062a266.5 266.5 0 0 0-1.063 7.625l-.275 2.14c-.224 1.745-.443 3.49-.662 5.235h-1c-.288-11.88.473-23.524 1.6-35.347.276-2.912.54-5.825.802-8.739.861-9.375 1.794-18.665 3.598-27.914Z"/><path fill="#DC924E" d="M1403 743h1c1.12 8.035 1.114 15.96 1.063 24.063-.006 1.356-.01 2.712-.014 4.068-.012 3.29-.028 6.58-.049 9.869h2l.148 3.035.227 4.028c.07 1.31.14 2.621.21 3.972.515 4.918 1.858 9.294 3.415 13.965.081 1.554.108 3.112.098 4.668l-.01 2.705-.025 2.814-.014 2.85c-.012 2.321-.028 4.642-.049 6.963h-1c-1.687-12.191-1.687-12.191-2.43-17.608-1.104-8.05-1.104-8.05-2.246-16.095-2.33-16.435-2.466-32.734-2.324-49.297Z"/><path fill="#DF8534" d="m1401 716 2 1c.431 2.894.718 5.712.938 8.625l.236 2.855c.285 3.506.555 7.013.826 10.52a8442.281 8442.281 0 0 1 1.757 22.15c.937 11.943 1.664 23.885 2.243 35.85l-2-1v-15h-2l-.076-2.52c-.096-3.125-.195-6.25-.296-9.376-.064-2.001-.124-4.003-.185-6.004.558-11.158.558-11.158-2.443-21.1-.998-8.636-1.143-17.316-1-26Z"/><path fill="#FDE9CA" d="M1380 1289v2h-7v2c-4.065 1.854-7.824 2.53-12.25 3.063l-3.766.472c-14.172 1.437-28.316 1.598-42.546 1.527-1.802-.005-3.603-.01-5.405-.013-4.344-.011-8.689-.028-13.033-.049v-1l2.54-.06c37.48-.29 37.48-.29 74.14-7.034 3.32-.906 3.32-.906 7.32-.906Z"/><path fill="#FDEACC" d="M1410 974h1c-.356 7.533-1.078 14.832-2.375 22.25-2.546 14.775-3.419 29.819-4.625 44.75h-1c-.598-33.517-.598-33.517 3-49 .568-2.975 1.094-5.956 1.625-8.938 1.215-6.741 1.215-6.741 2.375-9.062Z"/><path fill="#FCE8C8" d="M649 685h1a5305.48 5305.48 0 0 1-.317 18.127c-.038 2.046-.073 4.092-.105 6.138-.168 10.709-.48 21.365-1.492 32.032l-.23 2.536c-.394 3.75-.73 5.98-2.856 9.167-.239-11.69.412-23.26 1.227-34.918.212-3.038.416-6.077.619-9.115l.4-5.87.183-2.714c.363-5.157.882-10.26 1.571-15.383Z"/><path fill="#E18C3F" d="M1420 947h1c.31 5.294-.82 9.616-2.313 14.625-.462 1.605-.923 3.21-1.382 4.816l-.681 2.36c-2.173 7.658-3.939 15.421-5.624 23.199h-2c1.104-15.763 4.518-30.545 11-45Z"/><path fill="#E4842F" d="M469 896h1v38h17c3.775.346 7.4.73 11.125 1.313l2.625.357c5.19.769 9.574 1.918 14.25 4.33l1 2c-3.48-.622-6.959-1.248-10.438-1.875l-2.95-.527c-4.317-.78-8.585-1.58-12.835-2.668-6.827-1.329-13.835-1.496-20.777-1.93v-39Z"/><path fill="#FCE7C9" d="M581 616h2l-.332 2.77A4655.92 4655.92 0 0 0 581 633l-.373 3.197c-2.133 18.297-2.133 18.297-3.416 36.666-.209 3.101-.647 6.083-1.211 9.137h-1c-.301-10.472.201-20.862.875-31.313l.238-3.861C577.49 626.51 577.49 626.51 580 624c.23-1.347.412-2.704.563-4.063L581 616Z"/><path fill="#FCE6C6" d="M644 755h1c.12 10.45-.137 20.821-.8 31.251-.14 2.237-.271 4.474-.401 6.712-.087 1.428-.175 2.855-.264 4.283l-.238 3.865C643 804 643 804 642 805a244.7 244.7 0 0 0-1 7.813c-.93 8.17-.93 8.17-2 12.187h-2l.365-3.221a2527.67 2527.67 0 0 0 3.44-32.568l.783-7.816c.88-8.793 1.726-17.585 2.412-26.395Z"/><path fill="#DE8637" d="M576 688h1c.283 14.805-.494 29.358-1.76 44.107-.41 4.943-.703 9.891-.994 14.842-.272 3.377-.736 6.702-1.246 10.051h-2l1-28h2l-.035-2.323c-.072-8.543.373-16.975 1.035-25.49l.29-3.869c.232-3.106.469-6.212.71-9.318Z"/><path fill="#DB8C43" d="m1536 942-2.895.883C1516.135 948.2 1502.79 955.73 1493 971a245.054 245.054 0 0 1-3 4l1-7 3-1 .438-1.75c1.38-5.518 6.954-10.139 11.562-13.25h3v-2l1.61-.77 2.14-1.043 2.11-1.019c2.186-1.11 2.186-1.11 4.062-2.727 2.525-1.75 4.56-2.177 7.578-2.691l2.844-.516c2.55-.225 4.246-.03 6.656.766Z"/><path fill="#FCE8C9" d="M1451 571h2l1 6h2c2.253 4.8 3.246 8.721 4 14l1.5 3.438c1.693 4.022 2.054 7.248 2.5 11.562l1 1c.405 2.73.755 5.445 1.063 8.188l.275 2.29c.484 4.2.763 8.287.662 12.522-2.275-3.721-2.659-7.64-3.25-11.875-2.258-14.673-6.16-29.147-11.867-42.86C1451 573 1451 573 1451 571Z"/><path fill="#FCE9CA" d="M1389 622c2.126 3.189 2.48 4.925 3.035 8.656l.514 3.348.514 3.496c.342 2.282.687 4.563 1.035 6.844l.453 3.068c.4 2.692.4 2.692 1.449 5.588.471 3.32.751 6.661 1.063 10l.27 2.862c.578 6.391.938 12.718.667 19.138h-1c-2.312-5.57-2.397-10.876-2.563-16.813-.06-1.902-.123-3.804-.19-5.707l-.073-2.534c.035-1.95.035-1.95-1.174-2.946-.286-1.74-.515-3.49-.719-5.242l-.386-3.23-.395-3.403c-.258-2.206-.518-4.412-.781-6.617l-.346-2.98c-.315-2.645-.315-2.645-1.373-5.528-.128-2.674-.044-5.321 0-8Z"/><path fill="#DB934E" d="M653 1283c5.018-.57 8.14.349 12.75 2.438 5.108 2.287 9.398 3.168 14.973 3.324C683 1289 683 1289 686 1291c2.773.334 5.519.44 8.309.559 3.018.495 4.428 1.435 6.691 3.441-6.023.18-11.48-.415-17.375-1.625l-2.601-.527c-6.17-1.312-12.164-2.986-18.149-4.973l-2.314-.768c-5.29-1.836-5.29-1.836-7.561-4.107Z"/><path fill="#DD904A" d="M554 968h2v2h2c2.285 4.259 3.71 8.353 5 13l1 2c1.442 2.884 2.168 5.892 3 9l.539 1.853c.577 2.685.68 5.261.777 8.006l.127 3.38.12 3.511.13 3.559c.106 2.897.208 5.794.307 8.691h-1l-.304-2.149c-3.328-25.131-3.328-25.131-12.524-48.558C554 970 554 970 554 968Z"/><path fill="#DA9857" d="M1475 740h1l.138 1.764c.485 6.167.972 12.333 1.461 18.5.181 2.288.362 4.576.541 6.865 1.124 14.31 2.36 28.596 3.86 42.871-5.448-5.448-4.62-15.193-5.063-22.375l-.249-3.792c-.162-2.487-.321-4.975-.477-7.463-.176-2.809-.363-5.617-.559-8.425-.629-9.326-.765-18.603-.652-27.945Z"/><path fill="#FCE3C2" d="M574 682h1c.077 8.53-.12 16.997-.621 25.512l-.195 3.437c-.135 2.376-.272 4.751-.41 7.126-.212 3.614-.416 7.227-.62 10.841l-.4 6.97-.183 3.234A379.525 379.525 0 0 1 571 758h-1c.093-6.704.2-13.408.317-20.111.038-2.274.073-4.548.105-6.822.322-22.851.322-22.851 2.101-34.003.777-4.994 1.12-10.025 1.477-15.064Z"/><path fill="#DD934C" d="M1363 1218v2h-2l-1 3c-2.11.879-2.11.879-4.75 1.563-2.775.753-5.39 1.493-8.063 2.562-4.121 1.649-8.078 1.998-12.488 1.973l-2.959-.01-3.053-.025-3.11-.014c-2.526-.012-5.052-.028-7.577-.049v-1l1.857-.196c20.307-2.138 20.307-2.138 39.444-8.956C1361 1218 1361 1218 1363 1218Z"/><path fill="#D89150" d="M584 1184c1.458 2.694 2.324 5.056 2.875 8.063.75 3.627 1.813 6.973 3.125 10.437 1.266 3.347 2.307 6.553 3 10.063.848 4.209 2.326 7.976 3.98 11.93 1.534 3.772 2.784 7.629 4.02 11.507h2l2 7c-3.4-2.796-5.041-6.63-6.938-10.5-.354-.72-.71-1.438-1.075-2.179-2.746-5.65-5.072-11.333-6.987-17.321l-1.055-3.21c-5.41-16.944-5.41-16.944-4.945-25.79Z"/><path fill="#DC934F" d="M570 758h1c.681 35.512.681 35.512-3 49h-2v5l-2 1a676.974 676.974 0 0 1 1.684-14.355A900.461 900.461 0 0 0 570 758Z"/><path fill="#FCECD0" d="M654 639h1c.254 9.606-.129 19.05-.938 28.625l-.263 3.123c-.425 4.79-.903 9.521-1.799 14.252h-2c-.613-15.018.02-31.453 4-46Z"/><path fill="#FDEBCE" d="M1294 572c45.634-.796 45.634-.796 65 8-3.711 1.237-5.03.208-8.517-1.194-4.962-1.61-10.19-1.906-15.358-2.431-2.248-.239-4.495-.481-6.742-.727-.986-.1-1.972-.202-2.988-.307C1323 575 1323 575 1321 574c-2.03-.154-4.066-.25-6.102-.316l-3.671-.127-3.852-.12-3.875-.13c-3.167-.107-6.333-.209-9.5-.307v-1Z"/><path fill="#FBE5C4" d="M1474 1077h1c.025 4.962.043 9.924.055 14.886.005 1.685.012 3.37.02 5.054.013 2.435.018 4.87.023 7.306l.015 2.246c.002 13.279.002 13.279-2.113 17.508-.225 1.537-.408 3.08-.563 4.625l-.253 2.477L1472 1133h-1c-.237-12.413.501-24.633 1.5-37l.434-5.563c.349-4.48.705-8.958 1.066-13.437Z"/><path fill="#FEECCD" d="m685 1293 3.55.402 4.763.535 2.322.264c2.454.275 4.91.538 7.365.799l2.368.27c9.413.981 18.866 1.077 28.32 1.293l5.341.13c4.324.106 8.647.208 12.971.307v1c-38.472.19-38.472.19-52.75-.438l-2.785-.118c-3.354-.17-6.264-.377-9.465-1.444v-2l-2-1Z"/><path fill="#FCEBD0" d="M1517 949c-.063 1.75-.063 1.75-1 4-3.095 2.283-6.363 3.788-10 5a101.683 101.683 0 0 0-2 4c-1.656 1.922-1.656 1.922-3.5 3.75l-1.844 1.86C1497 969 1497 969 1495 969v2h-2c2.982-8.429 14.346-22 24-22Z"/><path fill="#DC934D" d="M1395 1144h1v17h-2l-.113 2.492c-.427 7.243-1.434 13.675-3.887 20.508h-2l.25 2.25c-.321 3.532-1.603 4.516-4.25 6.75l.48-1.555c.857-2.81 1.686-5.628 2.52-8.445l.584-1.902c3.753-12.247 5.874-24.39 7.416-37.098Z"/><path fill="#FFF5DE" d="m611 885 1 2c-3.176 6.749-7.796 11.864-14 16v4h2l-1 3-7-6c4.003-4.137 8.266-7.928 12.598-11.719 2.396-2.275 4.401-4.656 6.402-7.281Z"/><path fill="#FBE8CA" d="M1470 1133h1c.223 12.52.156 24.639-2 37h-2l-1 3c.573-13.433 2.226-26.68 4-40Z"/><path fill="#FEEED3" d="m1437 917 3 1-1.25 1.293c-8.039 8.703-13.737 19.031-18.75 29.707-1.417-4.25-.193-6.719 1-11h2v-2h2l.438-2.375C1426 931 1426 931 1427 929h2v-4l4-1 .313-2.375C1434 919 1434 919 1437 917Z"/><path fill="#DE924A" d="M526 863v2c-3.295 2.354-6.056 3.31-10 4l-2.339 1.015c-2.797 1.035-4.777 1.217-7.743 1.18l-2.822-.02-2.909-.05-2.966-.027A974.057 974.057 0 0 1 490 871v-1l2.613-.262c9.463-1.089 18.391-3.162 27.563-5.715C524 863 524 863 526 863Z"/><path fill="#DA9656" d="M1400 1089h1c.189 10.447-.402 20.826-1 31.25l-.29 5.184c-.233 4.189-.47 8.377-.71 12.566h-2l-1 4c.647-12.041 1.534-24.048 2.563-36.063l.42-4.97c.336-3.99.676-7.978 1.017-11.967Z"/><path fill="#DE8E43" d="m553 840 1 3a73.774 73.774 0 0 1-5.313 6.813l-1.656 1.904c-5.221 5.809-10.62 10.827-18.656 11.658L526 863c2.802-2.185 5.661-3.999 8.75-5.75 7.682-4.582 13.362-9.765 18.25-17.25Z"/><path fill="#FEF3DE" d="M688 581v2h-3l-.727 1.707c-1.542 2.778-3.408 4.73-5.648 6.98l-2.336 2.387c-2.282 1.92-3.467 2.327-6.289 2.926-1.261 2.362-1.261 2.362-2 5l-1 3h-2c2.966-8.405 8.437-15.169 15.625-20.313l2.914-2.113C686 581 686 581 688 581Z"/><path fill="#DC893B" d="M709 1227c14.03.673 28.008 1.776 42 3v1c-32.42.456-32.42.456-41-2l-1-2Z"/><path fill="#D9904C" d="M577 1133c2.033 3.05 2.308 4.097 2.598 7.598l.24 2.677.225 2.787c.154 1.825.31 3.65.472 5.473l.2 2.45c.162 2.081.162 2.081 1.265 4.015.071 2.374.084 4.75.063 7.125l-.028 3.883L582 1172h2v12h-1c-3.023-16.965-4.962-33.8-6-51Z"/><path fill="#F9E3C4" d="M468 936c10.859-.26 21.257.4 32 2v1h-31l-1-3Z"/><path fill="#DA924B" d="M601 912c4.109 1.565 6.512 4.521 9.25 7.813l1.448 1.725C624 936.536 624 936.536 624 942c-3-1-3-1-5-4v-4h-2c-1.29-1.68-1.29-1.68-2.625-3.875l-1.352-2.18C612 926 612 926 612 924h-2v-2l-3-1c-.688-2.063-.688-2.063-1-4l-4-1-1-4Z"/><path fill="#FADCB5" d="M704 1225c2.48-.027 4.958-.047 7.438-.063l2.142-.025c1.807-.009 3.614.036 5.42.088l1 1c2.371.23 4.72.403 7.098.535l2.148.13c2.272.137 4.544.267 6.817.398 1.537.09 3.074.183 4.61.275 3.776.225 7.551.445 11.327.662v1c-16.124.255-32.154.409-48-3v-1Z"/><path fill="#FEEFD5" d="M1465 1173h1c-.14 2.959-.287 5.917-.438 8.875l-.119 2.55-.127 2.442-.11 2.254C1465 1191 1465 1191 1464 1193a122.734 122.734 0 0 0-.313 4.063c-.588 5.863-2.458 11.708-6.687 15.937.654-4.121 1.45-8.178 2.375-12.246l.797-3.537c.551-2.433 1.103-4.865 1.656-7.297 1.266-5.627 2.497-11.19 3.172-16.92Z"/><path fill="#DB9651" d="M651 1142h1c.105.714.21 1.429.32 2.165 2.784 19.02 2.784 19.02 6.68 37.835h-2c-4.853-13.403-6.462-25.86-6-40Z"/><path fill="#DC9048" d="M1460 1187h3c-.898 7.076-2.39 13.824-4.5 20.625l-.647 2.117c-.956 2.991-1.601 5.006-3.853 7.258l.875-3.688c.883-3.94 1.538-7.88 2.125-11.874.728-4.921 1.684-9.643 3-14.438Z"/><path fill="#D9924F" d="M572 1059h1c1.83 9.662 2.251 19 2.125 28.813-.01 1.386-.02 2.772-.027 4.158-.024 3.343-.056 6.686-.098 10.029h-1c-1.245-14.353-2.361-28.588-2-43Z"/><path fill="#DF9048" d="M563 814h1c.308 8.636-1.076 17.646-6 25-2.133.754-2.133.754-4 1 1.692-5.288 3.747-10.4 5.877-15.521 1.416-3.472 2.546-6.77 3.123-10.479Z"/><path fill="#FADEBA" d="M576 1126h1l.26 2.934c.32 3.612.643 7.224.967 10.836.14 1.559.278 3.119.416 4.678.199 2.25.4 4.498.603 6.747l.183 2.094c.359 3.942.898 7.811 1.571 11.711.112 2.678.046 5.317 0 8h-1c-4.333-15.423-4.195-31.095-4-47Z"/><path fill="#FDE7C8" d="m594 573 2 1-1.137 3.086c-4.37 12.026-8.554 24.3-10.863 36.914h-1c.43-6.165 1.296-12.232 2.375-18.313l.345-2.064c.762-4.137 1.982-7.124 4.28-10.623.707-2.693.707-2.693 1-5h2l1-5Z"/><path fill="#DA8A40" d="m1431 1254 3 1c-15.91 16.521-15.91 16.521-23 20h-2c.125-1.813.125-1.813 1-4 3.209-1.953 5.22-3 9-3v-3c1.408-.938 2.821-1.87 4.266-2.75 3.106-2.238 5.37-5.267 7.734-8.25Z"/><path fill="#DA8E47" d="M1452 1220c1 3 1 3-.406 6.406a271.914 271.914 0 0 1-2.094 4.094c-.362.71-.724 1.42-1.098 2.15-3.12 6.02-6.596 11.736-10.402 17.35l-1-4 3-1 .375-2.813C1441 1239 1441 1239 1443 1236h2l.688-2.375c1.719-4.748 3.993-9.146 6.312-13.625Z"/><path fill="#DF934C" d="M614 543c.672 1.75.672 1.75 1 4-1.11 2-1.11 2-2.75 4l-1.61 2-1.64 2-1.578 2.25L606 559h-2l-2 6h-2c1.417-5.25 3.814-8.953 7-13.25l1.367-1.89c1.77-2.43 3.505-4.732 5.633-6.86Z"/><path fill="#FBE5C7" d="M581 1173h1c.84 4.416 1.67 8.833 2.5 13.25l.723 3.8.683 3.653.635 3.364C587 1200 587 1200 587 1204h-2c-1.336-4.842-2.253-8.934-2-14h-2v-17Z"/><path fill="#FCE4C1" d="M502 939c11.688 1.707 21.574 4.387 32 10-3.133 1.044-3.99.934-7 0v-2l-2.238-.332A159.788 159.788 0 0 1 504 942v-2l-2-1Z"/><path fill="#DE883C" d="M1385 608h3l1 5h2c1.298 5.76 2.257 11.087 2 17h-2c-.815-2.728-1.627-5.458-2.438-8.188l-.697-2.33c-1.127-3.807-2.182-7.564-2.865-11.482Z"/><path fill="#D9914C" d="M1441 555c4.37 3.632 6.293 8.204 8.625 13.25l1.195 2.488c2.362 5.034 4.015 9.824 5.18 15.262l-3-1-1-8h-2c-1.128-2.54-2.253-5.082-3.375-7.625l-.96-2.16c-1.771-4.02-3.354-8.016-4.665-12.215Z"/><path fill="#D79859" d="M1574 936v1l-3.191.113c-8.75.377-17.003 1.299-25.54 3.266-3.178.604-6.044.734-9.269.621 4.557-4.991 10.467-4.567 16.873-4.918 7.036-.271 14.088-.149 21.127-.082Z"/><path fill="#DA8D42" d="M678 1214a160.849 160.849 0 0 1 6.488 3.367c7.956 4.247 15.792 6.608 24.512 8.633v1a398.51 398.51 0 0 1-5.188.125l-2.917.07c-3.023-.204-5.163-.926-7.895-2.195v-2l-2.203-.352c-2.859-.662-4.987-1.606-7.547-3.023l-2.36-1.273C679 1217 679 1217 678 1214Z"/><path fill="#FDECCD" d="m1501 849 5 1 1 3h2v2c.568.182 1.137.364 1.723.55 4.876 1.588 9.685 3.154 14.277 5.45l1 3c-9.588-2.717-19.025-6.74-25-15Z"/><path fill="#DA8D47" d="m690 580-2.012 1.172c-7.273 4.29-12.718 8.118-17.656 15.023C669 598 669 598 667 600v-5h2l1-3h2l.125-1.688c1.326-3.504 3.966-5.056 6.875-7.312l2-2c3.522-1.761 5.267-2.12 9-1Z"/><path fill="#FEECCF" d="m638 524-2.816 1.941C628.58 530.544 622.456 535.024 617 541l-1-4h3l1-4h3l1-3h3v-2h2l1-3c3.046-2.1 4.55-2.013 8-1Z"/><path fill="#DF8F45" d="M1383 1193c.96 2.57 1.092 3.735.18 6.367-2.626 5.047-5.086 9.642-9.18 13.633-2.813.875-2.813.875-5 1l1.102-1.434c7.124-9.356 7.124-9.356 12.898-19.566Z"/><path fill="#DD924A" d="M1420 947h1c.204 4.634-.46 8.382-1.813 12.813l-1.019 3.457L1417 966l-3 1v5l-2 1c1.277-9.158 4.628-17.454 8-26Z"/><path fill="#FEF0D6" d="M562 816c1.332 3.997-.02 6.357-1.563 10.063l-.82 2.015c-2.359 5.633-5.24 10.831-8.617 15.922l-1-4h2l1-5h2l.25-2.438c1.248-5.926 4.035-11.18 6.75-16.562Z"/><path fill="#FBE5C6" d="M1490 975h1a339.656 339.656 0 0 1-.375 4.313c-.07.8-.14 1.6-.21 2.425C1490 984 1490 984 1488 987c-.39 1.99-.732 3.99-1 6h-2l.188 2.25c-.219 3.204-1.09 4.39-3.188 6.75a91.98 91.98 0 0 1 2.875-14.063l.992-3.535c1.11-3.33 2.485-6.308 4.133-9.402Z"/><path fill="#D99350" d="M1432 881h3v2h2v2h2l.188 1.813c1.128 3.038 3.088 3.58 5.812 5.187v3l1.813.875C1449 897 1449 897 1452 899v2c-8.042-3.502-14.706-11.173-20-18v-2Z"/><path fill="#FBE5C5" d="M662 609h1v8l-2 1a558.3 558.3 0 0 0-.582 6.3c-.743 4.796-2.616 9.215-4.418 13.7-1.345-4.37-.334-7.922.75-12.25l.516-2.2c1.216-5.018 2.842-9.745 4.734-14.55Z"/><path fill="#FEF0DA" d="M1432 1256c.766 1.71.766 1.71 1 4-1.766 2.29-1.766 2.29-4.25 4.625l-2.453 2.352C1424 1269 1424 1269 1421 1271c-2.188-.375-2.188-.375-4-1l2.012-1.793c4.437-3.971 8.846-7.927 12.988-12.207Z"/><path fill="#FEEFD4" d="M1459 591c2 1 2 1 3.063 3.563a49.8 49.8 0 0 1 1.5 7.75c.027 3.483.027 3.483 1.437 4.687.405 2.73.755 5.445 1.063 8.188l.275 2.29c.484 4.2.763 8.287.662 12.522-1.905-3.3-2.487-6.255-3-10.016l-.5-3.543-.5-3.691c-1.01-7.362-2.003-14.584-4-21.75Z"/><path fill="#E58731" d="M1397 1138h2c-.63 7.67-1.291 15.337-2 23h-1c-.03-3.083-.047-6.167-.063-9.25l-.025-2.645-.01-2.558-.016-2.349c.114-2.19.508-4.094 1.114-6.198Zm-3 23 2 1-2 10h-1l1-11Z"/><path fill="#DA944F" d="M628 951c2.786 2.786 3.492 6.073 4.625 9.75l.695 2.133c1.3 4.163 1.944 7.704 1.68 12.117h-2l-.367-2.082-.508-2.73-.492-2.708c-.545-2.707-.545-2.707-2.633-5.48-.414-2.7-.414-2.7-.625-5.688l-.227-3.011L628 951Z"/><path fill="#DE8D41" d="M674 1289c1.437-.054 2.875-.093 4.313-.125l2.425-.07C683 1289 683 1289 686 1291c2.773.334 5.519.44 8.309.559 3.018.495 4.428 1.435 6.691 3.441-6.449.299-11.813-.742-18-2.5l-2.637-.723A783.362 783.362 0 0 1 674 1290v-1Z"/><path fill="#DB8D44" d="m1517 861 3.438 1.25c7.364 2.475 14.992 4.038 22.562 5.75v1c-10.063.803-17.087-1.544-26-6v-2Z"/><path fill="#DB954F" d="M1482 811c1.987 3.624 3.228 7.46 4.5 11.375l.645 1.96c.62 1.888 1.237 3.777 1.855 5.665.665 2 1.331 4 2 6h-2c-3.865-4.026-4.927-8.986-5.125-14.438L1484 819h-2v-8Z"/><path fill="#DB8F4A" d="M589 591c.911 2.97 1.018 5.065.441 8.11l-.42 2.285-.458 2.355-.448 2.402c-.364 1.951-.739 3.9-1.115 5.848l-3 1c.61-7.63 2.796-14.702 5-22Z"/><path fill="#DD914A" d="m633 1272 7 2v2l2.063.313c3.566.834 6.6 2.182 9.937 3.687v3c-4.743-1.377-8.725-3.438-12.875-6.063l-1.797-1.103A141.972 141.972 0 0 1 633 1273v-1Z"/><path fill="#FDE8C3" d="m1449 900 7 4c-2.378 2.5-4.953 4.587-7.688 6.688l-2.449 1.886L1444 914l-1-3h2v-2c1.313-1.625 1.313-1.625 3-3h3l-2-6Z"/><path fill="#DA9552" d="M1369 1291c-8.009 4.506-18.054 4.317-27 4 3.832-2.413 7.976-2.664 12.375-3.125l2.25-.262c4.146-.461 8.196-.706 12.375-.613Z"/><path fill="#DA8C45" d="M1398 1282c-2.35.99-4.705 1.966-7.063 2.938l-1.99.841c-4.347 1.778-8.272 2.74-12.947 3.221l1-3 1.941-.332c4.192-.768 8.07-1.52 11.934-3.355 3.306-1.389 3.913-1.349 7.125-.313Z"/><path fill="#FEF4DD" d="m675 507-3 1v2c-2.269.53-4.54 1.05-6.813 1.563l-3.832.878C658 513 658 513 655 512c1.75-.648 3.5-1.294 5.25-1.938l2.953-1.09c4.125-1.434 7.418-2.094 11.797-1.972Z"/><path fill="#DB8941" d="M584 1184c1.458 2.694 2.324 5.056 2.875 8.063.966 4.737 2.613 9.077 4.418 13.554C592 1208 592 1208 591 1211c-4.246-8.534-7.285-17.381-7-27Z"/><path fill="#DB8F49" d="M494 937c15.103-.566 15.103-.566 21 3l1 2-22-4v-1Z"/><path fill="#D88C45" d="M715 572v1l-3.691.805-4.871 1.07-2.424.527c-4.728 1.042-9.374 2.215-14.014 3.598l1-3a57.906 57.906 0 0 1 7-2.188l2.051-.528c5.146-1.255 9.69-1.653 14.949-1.284Z"/><path fill="#DD954C" d="M663 1193c2.114 2.776 4.121 5.6 6.063 8.5l1.535 2.281A58.252 58.252 0 0 1 674 1210h-2v-2h-2v-2h-2v-3l-1.938-.938C664 1201 664 1201 663 1200c-.04-2.333-.042-4.667 0-7Z"/><path fill="#FDEBCC" d="m545 847 3 1a876.4 876.4 0 0 1-4.188 3.813l-2.355 2.144C535.392 859 535.392 859 532 859v-2h2v-2h3v-2h2v-2h4v-2h2v-2Z"/><path fill="#D98F47" d="M1478 788c2.403 2.403 2.34 3.266 2.633 6.57l.254 2.715.238 2.84.262 2.863c.212 2.337.416 4.674.613 7.012-3.532-3.532-3.945-7.53-4.125-12.352 0-3.218.038-6.43.125-9.648Z"/><path fill="#FBE4C4" d="M1400 1281v2c-5.099 3.255-9.912 5.426-16 6a96.02 96.02 0 0 1-4-1l3.43-1.277 4.445-1.66 2.262-.842c8.614-3.221 8.614-3.221 9.863-3.221Z"/><path fill="#FCE6C8" d="M1379 599c3.385 3.015 5.084 5.823 6.813 10l1.332 3.125c.86 2.894.937 4.114-.145 6.875-2.188-4.28-4.214-8.535-6-13l-2-3v-4Z"/><path fill="#DF924B" d="M599 565c1.315 3.659.655 6.08-.438 9.75l-.87 2.984L597 580l-4 1c1.564-5.614 3.164-10.868 6-16Z"/><path fill="#FEEED3" d="M1388 1177c1.353 4.06.152 5.771-1.438 9.688l-1.433 3.574L1384 1193h-1c-.347-5.668.474-9.046 3-14l2-2Z"/><path fill="#FDE8C8" d="M564 997h1c.509 2.665 1.007 5.332 1.5 8l.434 2.254c.912 4.998 1.205 9.665 1.066 14.746-4.169-7.216-4.32-16.837-4-25Z"/><path fill="#FEEED1" d="M527 859h5c-3.018 2.483-5.897 3.913-9.563 5.25l-2.878 1.078C517 866 517 866 514 865c4.61-2.95 7.365-4.55 13-4v-2Z"/><path fill="#DB934E" d="m553 840 1 3a62.054 62.054 0 0 1-4.625 6.125c-.44.55-.88 1.1-1.332 1.668-2.158 2.576-3.63 4.08-6.879 5.074L539 856l2.063-2c4.341-4.342 8.528-8.887 11.937-14Z"/><path fill="#DA9350" d="m1431 928 1 2a97.945 97.945 0 0 1-3.438 6.625l-1.025 1.852A674.308 674.308 0 0 1 1425 943h-2l-1 4-1-2c1.074-2.39 1.074-2.39 2.688-5.25l1.675-2.973A129.663 129.663 0 0 1 1431 928Z"/><path fill="#FBE4C3" d="M1426 874c4.923 4.544 9.152 9.925 12 16a465.453 465.453 0 0 1-3.813-2.75l-2.144-1.547c-4.178-3.483-5.43-6.314-6.043-11.703Z"/><path fill="#FCE7C7" d="M588 1208c2.29 2.29 2.641 3.669 3.5 6.75 1.08 3.784 2.226 7.525 3.5 11.25-4.436-4.14-6.146-7.188-6.625-13.25l-.227-2.703L588 1208Z"/><path fill="#D98940" d="M554 968h2v2h2c2.945 4.993 3.635 9.336 4 15-1.964-2.946-3.535-5.9-5.125-9.063l-1.633-3.222C554 970 554 970 554 968Z"/><path fill="#D8904A" d="M1491 836c3.451 4.248 6.73 8.613 10 13l3 4c-3.362-1.44-5.592-3.248-8-6v-2h-2v-3l-3-1v-5Z"/><path fill="#DB8F49" d="M517 942c6.774.273 11.347 1.19 17 5v2a365.55 365.55 0 0 1-17-6v-1Z"/><path fill="#FBE6C7" d="M627 858c.878 3.097.994 4.906 0 8h-2v5l-4 1c1.492-4.972 3.605-9.418 6-14Z"/><path fill="#FCE6C5" d="M1481 801h2v7h2v10c-3.317-4.975-4.385-11.036-4-17ZM675 589l2 1c-3.625 5.875-3.625 5.875-7 7-1.184 2.376-1.184 2.376-2 5l-1 3h-2c2.169-6.145 5.89-11.009 10-16Z"/><path fill="#FEEDD0" d="M1359 1219c-2.903 2.398-5.457 3.684-9.063 4.75l-2.597.797c-2.34.453-2.34.453-5.34-.547l5.2-2.2c1.878-.797 1.878-.797 3.862-1.987 2.682-1.125 5.066-.944 7.938-.813Z"/><path fill="#FCE4C1" d="M1465 1173h1a812.35 812.35 0 0 1-.313 8.813l-.068 2.525-.107 2.432-.08 2.237c-.534 2.465-1.532 3.394-3.432 4.993.706-7.059 1.782-14.012 3-21Z"/><path fill="#FCF0DC" d="m611 885 1 2c-2.542 5.388-5.257 8.443-10 12 2.472-5.135 5.36-9.608 9-14Z"/><path fill="#FDEBD0" d="M1410 826h1l2 16h-2c-1.867-3.897-2.14-6.54-1.625-10.813l.336-2.957.289-2.23Z"/><path fill="#E58835" d="M1411 818c2.36 3.54 2.586 5.991 3.125 10.188l.508 3.855L1415 835c-2.949-2.345-3.93-3.423-4.39-7.234l.14-3.516.11-3.547.14-2.703Z"/><path fill="#F9DEBD" d="M1407 805h1l2 20-1-2h-2v-18Z"/><path fill="#FDEDD3" d="m502 939 12 2v2h2l-1 2-11-3v-2l-2-1Z"/><path fill="#DE8F43" d="M1546.188 936.938 1550 937l-4 1v2l-10 1c3.5-3.5 5.443-4.14 10.188-4.063Z"/><path fill="#FEF0D4" d="M1485 820c3 1 3 1 4.148 2.766.91 2.387 1.253 4.443 1.477 6.984l.227 2.422L1491 834c-2.472-2.963-3.662-5.54-4.688-9.25-.25-.892-.502-1.784-.761-2.703L1485 820Z"/><path fill="#FEEDCF" d="M1381 1193h2c-1.412 5.262-3.749 8.722-7 13l-1-3h2l.438-1.75L1379 1195h2v-2Z"/><path fill="#D98E49" d="M534 949c5.466.97 5.466.97 8 2 1.313 2.563 1.313 2.563 2 5l3 1-1 2a2094.717 2094.717 0 0 1-6-4.438l-1.734-1.275A197.945 197.945 0 0 1 534 950v-1Z"/><path fill="#FBE6C5" d="M636 827h1v12h-2l-2 4c.847-5.365 1.917-10.679 3-16Z"/><path fill="#FEEACB" d="M562 816c1.353 4.06.152 5.771-1.438 9.688l-1.433 3.574L558 832c-1.805-6.008 1.21-10.675 4-16Z"/><path fill="#E28C3D" d="M1363 1218v2h-2l-1 3c-2.683 1.45-4.273 2.118-7.313 1.625L1351 1224l2.313-.813c2.596-1.147 3.812-2.133 5.687-4.187 2-1 2-1 4-1Z"/><path fill="#FBE4C3" d="M560 982c1.724 2.585 2.447 4.038 3.188 6.938l.542 2.027c.303 2.282-.042 3.855-.73 6.035l-2-1c-.414-3.16-.414-3.16-.625-7.063l-.227-3.91L560 982Z"/><path fill="#FCE3BB" d="m598 898 2 1-2 1.875c-2.228 1.881-2.228 1.881-2 4.125l4 2-1 3-7-6 6-6Z"/><path fill="#DE9856" d="M1411 831c2 1.313 2 1.313 4 4 .36 3.689.23 7.305 0 11-1.813-3.2-2.522-6.133-3.125-9.75l-.508-2.984L1411 831Z"/><path fill="#FDE9CA" d="M1359 581c5.198 1.361 8.095 3.467 12 7l-4 1v-2h-3v-3l-5-1v-2Z"/><path fill="#D88C45" d="M1357 579c3.367-.23 5.414-.34 8.375 1.375L1367 582v2l3 1-1 2c-1.627-.955-3.252-1.914-4.875-2.875l-2.742-1.617C1359 581 1359 581 1357 579Z"/><path fill="#FAE2C1" d="M632 843c1.137 3.404.84 5.775.063 9.25l-.59 2.703L631 857h-3c.478-1.771.958-3.542 1.438-5.313l.808-2.988A120.773 120.773 0 0 1 632 843Z"/><path fill="#FEEED2" d="m638 1276 12 6v1c-5.241-.411-8.24-1.24-12-5v-2Z"/><path fill="#FDEBCD" d="M1370 1213a782.74 782.74 0 0 1-4.375 3l-2.46 1.688C1361 1219 1361 1219 1359 1219v-2h2v-2h3v-2c3-1 3-1 6 0Z"/><path fill="#DA9452" d="m618 1259 5 2v3l1.875.813C627 1266 627 1266 629 1269c-3.965-1.677-6.84-4.121-10-7l-1-3Z"/><path fill="#FBE6C7" d="M607 1248c3.63 2.65 5.899 5.018 8 9h-4v-4l-4-1v-4Z"/><path fill="#E38631" d="M566 807h1c.218 5.439.104 9.87-2 15h-1c-.218-5.439-.104-9.87 2-15Z"/><path fill="#D8924B" d="M1432 543c3.636 3.434 6.361 6.797 9 11-2.652-.368-3.738-.687-5.484-2.777l-1.266-2.16-1.297-2.153C1432 545 1432 545 1432 543Z"/><path fill="#DC944F" d="M676 510h-3v2c-2.75.917-4.36 1.109-7.188 1.063L662 513c4.263-2.842 8.964-5.014 14-3Z"/><path fill="#FDEDD4" d="M685 1293c7.625.625 7.625.625 11 4l-9-1v-2l-2-1Z"/><path fill="#F8DFBE" d="m1432 1256 1 4-7 5-2-1 8-8Z"/><path fill="#FDE9CD" d="m1440 1246 1 4c-1.215 1.703-1.215 1.703-2.938 3.25l-1.714 1.578L1435 1256l-2-1 7-9Z"/><path fill="#E7852D" d="M1387 1189c1 2 1 2 .547 3.875l-.797 2.125-.766 2.125C1385 1199 1385 1199 1382 1201c.453-1.44.912-2.876 1.375-4.313l.773-2.425C1385 1192 1385 1192 1387 1189Z"/><path fill="#DA8C43" d="M1409 1275c-2.725 3.366-6.069 4.442-10 6v-2c3.318-3.224 5.342-4.532 10-4Z"/><path fill="#DC8E46" d="M605 1243c3.335 1.38 5.186 2.85 7 6l-1 3a482.758 482.758 0 0 1-3-3.375l-1.688-1.898C605 1245 605 1245 605 1243Z"/><path fill="#FDEDD0" d="M683 505c-1.415 2.034-2.55 2.904-4.98 3.422-2.002.24-4.011.413-6.02.578l3-1v-2c2.928-.976 4.956-1.082 8-1Z"/><path fill="#494949" d="m1373 1571 11 1-2 3-9-3v-1Z"/><path fill="#E48735" d="M1415 837h1c2.277 8.036 2.277 8.036 1 12l-2-1v-11Z"/><path fill="#FDECCC" d="M1493 838h2v2h3l1 7c-3.08-2.773-4.688-5.063-6-9Z"/><path fill="#FBE3C2" d="m1415 1271 2 1c-2.25 2.563-2.25 2.563-5 5l-4-1 7-5Z"/><path fill="#FAE2C3" d="M1454 1217h1v8l-4 2 3-10Z"/><path fill="#FAE2BF" d="M692 1221c6.523-.37 6.523-.37 8.938 1.5L702 1224c-2 1-2 1-3.945.441l-2.18-.879-2.195-.87L692 1222v-1Z"/><path fill="#E38731" d="M1454 1212c1.483 2.965.835 4.851 0 8-2.063 1.875-2.063 1.875-4 3 .607-4.128 2.038-7.332 4-11Z"/><path fill="#FBE4C0" d="M681 1215c1.484.423 2.962.864 4.438 1.313l2.496.738L690 1218l1 3c-3.59-1.333-6.796-2.894-10-5v-1Z"/><path fill="#DA9654" d="M1388 1180c1.472 3.827.57 6.31-1 10a59.938 59.938 0 0 1-3 3l1.438-4.813.808-2.707c.558-1.835 1.147-3.66 1.754-5.48Z"/><path fill="#FEECD1" d="M619 932h3c3.125 5.5 3.125 5.5 2 10l-5-10Z"/><path fill="#D8914A" d="m1453 906 2 1c-1.26 1.2-2.533 2.384-3.813 3.563l-2.144 2.003L1447 914l-3-1 9-7Z"/><path fill="#DE8A3E" d="M1432 881h3v2h2v2h2v2c-3.243-.56-4.93-1.413-7-4v-2Z"/><path fill="#FAE2BF" d="M1526 864h10l1 3-3.813-.375-2.144-.21C1529 866 1529 866 1526 864Z"/><path fill="#DE9550" d="M631 529c-1.152 2.468-2.048 4.048-4 6-2.125-.375-2.125-.375-4-1 5.75-5 5.75-5 8-5Z"/><path fill="#FCE6C7" d="m1446 1236 1 4h-2l-1 5-3 1c1.335-3.594 2.96-6.755 5-10Z"/><path fill="#DC9650" d="M659 1183c2.19 3.285 2.998 6.207 4 10h-2c-2.43-3.644-2.162-5.712-2-10Z"/><path fill="#FBE3BF" d="m1412 525 5 1v2l4 1-1 3a962.085 962.085 0 0 1-4-2.938l-2.25-1.652L1412 526v-1Z"/><path fill="#FADFBC" d="M552 967c3.483 3.019 4.792 5.57 6 10l-3-1c-.95-2.066-.95-2.066-1.688-4.563-.25-.826-.502-1.652-.761-2.503L552 967Z"/><path fill="#D9904E" d="M547 959h2v2l1.938.688C553 963 553 963 553.75 965.625L554 968c-2.964-2.808-5.445-5.183-7-9Z"/><path fill="#FBE8C7" d="M542 956c3.571 1.88 5.547 3.17 7 7h-2v-2l-4-1-1-4Z"/><path fill="#FEF3DD" d="m647 515 3 1-4 1v3l-4 1c1.37-3.161 1.99-3.993 5-6Z"/><path fill="#FDEACD" d="M602 1240c4 4.625 4 4.625 4 8l-3-1-1-7Z"/><path fill="#DB8538" d="M1504 955c-1.285 2.867-2.571 4.976-5 7h-2c3.138-7 3.138-7 7-7Z"/><path fill="#FDECCF" d="M1437 548h3v2h2l1 4-2 1-4-7Z"/><path fill="#D98F4A" d="m622 535 1 3-6 5-2-1 7-7Z"/></svg>